<?xml version="1.0" encoding="UTF-8" standalone="no"?>
<!-- Created with Inkscape (http://www.inkscape.org/) -->

<svg
   xmlns:dc="http://purl.org/dc/elements/1.1/"
   xmlns:cc="http://creativecommons.org/ns#"
   xmlns:rdf="http://www.w3.org/1999/02/22-rdf-syntax-ns#"
   xmlns:svg="http://www.w3.org/2000/svg"
   xmlns="http://www.w3.org/2000/svg"
   xmlns:sodipodi="http://sodipodi.sourceforge.net/DTD/sodipodi-0.dtd"
   xmlns:inkscape="http://www.inkscape.org/namespaces/inkscape"
   width="75.000587mm"
   height="75.000069mm"
   viewBox="0 0 75.000587 75.000069"
   version="1.1"
   id="svg120"
   inkscape:version="0.92+devel (3ddb085, 2018-05-22)"
   sodipodi:docname="o.svg">
  <defs
     id="defs114" />
  <sodipodi:namedview
     id="base"
     pagecolor="#ffffff"
     bordercolor="#666666"
     borderopacity="1.0"
     inkscape:pageopacity="0.0"
     inkscape:pageshadow="2"
     inkscape:zoom="1"
     inkscape:cx="258.83632"
     inkscape:cy="167.61117"
     inkscape:document-units="mm"
     inkscape:current-layer="layer1"
     inkscape:document-rotation="0"
     showgrid="false"
     showborder="false"
     inkscape:window-width="1920"
     inkscape:window-height="1023"
     inkscape:window-x="0"
     inkscape:window-y="20"
     inkscape:window-maximized="1"
     fit-margin-top="0"
     fit-margin-left="0"
     fit-margin-right="0"
     fit-margin-bottom="0" />
  <metadata
     id="metadata117">
    <rdf:RDF>
      <cc:Work
         rdf:about="">
        <dc:format>image/svg+xml</dc:format>
        <dc:type
           rdf:resource="http://purl.org/dc/dcmitype/StillImage" />
        <dc:title></dc:title>
      </cc:Work>
    </rdf:RDF>
  </metadata>
  <g
     inkscape:label="Layer 1"
     inkscape:groupmode="layer"
     id="layer1"
     transform="translate(64.43586,-118.18038)">
    <path
       style="fill:#ff0000;fill-rule:evenodd;stroke-width:0.50356042"
       d="m -101.81836,446.66602 -10.00976,0.35742 -14.08594,1.70508 -13.79883,3.10156 -13.44727,4.46289 -12.92578,5.78906 -12.30468,7.05469 -11.5,8.22656 -10.67188,9.375 -9.63867,10.34375 -8.58008,11.28906 -7.4043,12.07813 -6.15625,12.74219 -4.86132,13.32226 -3.51368,13.74024 -2.10742,13.98047 -0.71289,14.17773 0.35547,10.01367 1.71094,14.08008 3.0957,13.79883 4.46875,13.44922 5.78711,12.92382 7.05273,12.30469 8.22461,11.50196 9.375,10.67187 10.34961,9.63867 11.28907,8.57813 12.07812,7.40625 12.73828,6.15429 13.32617,4.86329 13.73828,3.51171 13.97657,2.10743 14.18164,0.71484 10.011716,-0.35742 14.083985,-1.70508 13.798828,-3.10156 13.445312,-4.46289 12.927735,-5.78907 12.304687,-7.05468 11.5,-8.22657 10.6679689,-9.375 9.6425781,-10.34765 8.580078,-11.28711 7.404297,-12.08008 6.15625,-12.73828 4.861328,-13.32617 3.513672,-13.74024 2.107422,-13.97656 0.712891,-14.18164 -0.355469,-10.00977 -1.710938,-14.08007 -3.095703,-13.80274 -4.46875,-13.44531 -5.787109,-12.92774 -7.054688,-12.30078 -8.2421872,-11.52734 -9.33789068,-10.62695 -10.36718712,-9.66211 -11.289063,-8.57813 -12.078125,-7.40625 -12.771484,-6.16601 -13.240235,-4.83985 -0.01953,-0.004 -13.767578,-3.51368 -13.988281,-2.11718 z m 0.004,41.51562 10.021481,0.5 9.890625,1.49805 9.736328,2.48437 0.01367,0.002 9.361328,3.42187 9.03125,4.36133 8.539063,5.23633 7.982422,6.0664 7.332031,6.83008 6.601562,7.51563 5.828126,8.15039 4.988281,8.69726 4.0917966,9.14063 3.1601563,9.50781 2.1894531,9.75977 1.2089844,9.95507 0.2519531,7.07813 -0.5058594,10.02734 -1.4902343,9.88282 -2.4824219,9.71484 -3.4375,9.42383 -4.3535159,9.00586 -5.236328,8.54297 -6.066406,7.98046 -6.818359,7.31641 -7.542969,6.62891 -8.132813,5.8164 -8.699218,4.98828 -9.140626,4.09375 -9.507812,3.15625 -9.755859,2.19141 -9.958985,1.20703 -7.078124,0.25195 -10.02734,-0.5039 -9.88281,-1.49024 -9.71485,-2.48437 -9.42383,-3.4375 -9.00586,-4.35352 -8.54101,-5.23632 -7.98242,-6.06446 -7.31641,-6.8164 -6.62891,-7.54688 -5.8164,-8.13086 -4.98633,-8.70117 -4.09375,-9.13867 -3.1582,-9.50977 -2.18946,-9.75586 -1.20898,-9.95703 -0.25195,-7.08008 0.5039,-10.02539 1.49024,-9.88476 2.48437,-9.71485 3.4375,-9.41992 4.35352,-9.00976 5.23437,-8.53907 6.06641,-7.98242 6.8164,-7.31641 7.54493,-6.6289 8.13281,-5.81641 8.69922,-4.98828 9.14062,-4.0918 9.50781,-3.15625 9.75782,-2.19336 9.95898,-1.20703 z"
       transform="scale(0.26458333)"
       id="path131"
       inkscape:connector-curvature="0" />
  </g>
</svg>
