<?xml version="1.0" encoding="UTF-8"?>
<!-- Created with Inkscape (http://www.inkscape.org/) -->
<svg width="75.001mm" height="75mm" version="1.1" viewBox="0 0 75.001 75" xmlns="http://www.w3.org/2000/svg" xmlns:cc="http://creativecommons.org/ns#" xmlns:dc="http://purl.org/dc/elements/1.1/" xmlns:rdf="http://www.w3.org/1999/02/22-rdf-syntax-ns#">
 <metadata>
  <rdf:RDF>
   <cc:Work rdf:about="">
    <dc:format>image/svg+xml</dc:format>
    <dc:type rdf:resource="http://purl.org/dc/dcmitype/StillImage"/>
    <dc:title/>
   </cc:Work>
  </rdf:RDF>
 </metadata>
 <g transform="translate(64.436 -118.18)">
  <path transform="scale(.26458)" d="m-101.82 446.67-10.01 0.35742-14.086 1.7051-13.799 3.1016-13.447 4.4629-12.926 5.7891-12.305 7.0547-11.5 8.2266-10.672 9.375-9.6387 10.344-8.5801 11.289-7.4043 12.078-6.1562 12.742-4.8613 13.322-3.5137 13.74-2.1074 13.98-0.71289 14.178 0.35547 10.014 1.7109 14.08 3.0957 13.799 4.4688 13.449 5.7871 12.924 7.0527 12.305 8.2246 11.502 9.375 10.672 10.35 9.6387 11.289 8.5781 12.078 7.4062 12.738 6.1543 13.326 4.8633 13.738 3.5117 13.977 2.1074 14.182 0.71484 10.012-0.35742 14.084-1.7051 13.799-3.1016 13.445-4.4629 12.928-5.7891 12.305-7.0547 11.5-8.2266 10.668-9.375 9.6426-10.348 8.5801-11.287 7.4043-12.08 6.1562-12.738 4.8613-13.326 3.5137-13.74 2.1074-13.977 0.71289-14.182-0.35547-10.01-1.7109-14.08-3.0957-13.803-4.4688-13.445-5.7871-12.928-7.0547-12.301-8.2422-11.527-9.3379-10.627-10.367-9.6621-11.289-8.5781-12.078-7.4062-12.771-6.166-13.24-4.8398-0.01953-4e-3 -13.768-3.5137-13.988-2.1172zm4e-3 41.516 10.021 0.5 9.8906 1.498 9.7363 2.4844 0.01367 2e-3 9.3613 3.4219 9.0312 4.3613 8.5391 5.2363 7.9824 6.0664 7.332 6.8301 6.6016 7.5156 5.8281 8.1504 4.9883 8.6973 4.0918 9.1406 3.1602 9.5078 2.1895 9.7598 1.209 9.9551 0.25195 7.0781-0.50586 10.027-1.4902 9.8828-2.4824 9.7148-3.4375 9.4238-4.3535 9.0059-5.2363 8.543-6.0664 7.9805-6.8184 7.3164-7.543 6.6289-8.1328 5.8164-8.6992 4.9883-9.1406 4.0938-9.5078 3.1562-9.7559 2.1914-9.959 1.207-7.0781 0.25195-10.027-0.5039-9.8828-1.4902-9.7148-2.4844-9.4238-3.4375-9.0059-4.3535-8.541-5.2363-7.9824-6.0645-7.3164-6.8164-6.6289-7.5469-5.8164-8.1309-4.9863-8.7012-4.0938-9.1387-3.1582-9.5098-2.1895-9.7559-1.209-9.957-0.25195-7.0801 0.5039-10.025 1.4902-9.8848 2.4844-9.7148 3.4375-9.4199 4.3535-9.0098 5.2344-8.5391 6.0664-7.9824 6.8164-7.3164 7.5449-6.6289 8.1328-5.8164 8.6992-4.9883 9.1406-4.0918 9.5078-3.1562 9.7578-2.1934 9.959-1.207z" fill="#f00" fill-rule="evenodd" stroke-width=".50356"/>
 </g>
</svg>
