<?xml version="1.0" encoding="UTF-8"?>
<!-- Created with Inkscape (http://www.inkscape.org/) -->
<svg width="74.696mm" height="74.696mm" version="1.1" viewBox="0 0 74.696 74.696" xmlns="http://www.w3.org/2000/svg" xmlns:cc="http://creativecommons.org/ns#" xmlns:dc="http://purl.org/dc/elements/1.1/" xmlns:rdf="http://www.w3.org/1999/02/22-rdf-syntax-ns#">
 <metadata>
  <rdf:RDF>
   <cc:Work rdf:about="">
    <dc:format>image/svg+xml</dc:format>
    <dc:type rdf:resource="http://purl.org/dc/dcmitype/StillImage"/>
    <dc:title/>
   </cc:Work>
  </rdf:RDF>
 </metadata>
 <g transform="translate(59.348 -59.652)">
  <path d="m13.355 61.645c-3.1339-3.1339-8.8105-2.5032-12.728 1.4141l-22.627 22.627-22.627-22.627c-3.9174-3.9174-9.594-4.5488-12.728-1.4149-3.1339 3.1339-2.5029 8.8109 1.4145 12.728l22.627 22.627-22.627 22.627c-3.9174 3.9174-4.548 9.594-1.4141 12.728 3.1339 3.1339 8.8105 2.5032 12.728-1.4141l22.627-22.627 22.627 22.627c3.9174 3.9174 9.594 4.548 12.728 1.4141 3.1339-3.1339 2.5029-8.8101-1.4145-12.728l-22.627-22.627 22.627-22.627c3.9174-3.9174 4.548-9.594 1.4141-12.728z" fill="#00f" fill-rule="evenodd" stroke-width=".23665"/>
 </g>
</svg>
